<svg width="254" height="178" viewBox="0 0 254 178" fill="none" xmlns="http://www.w3.org/2000/svg">
<g opacity="0.7" filter="url(#filter0_i_39_331)">
<path d="M65.8612 177.255C52.1194 177.255 40.3249 173.777 30.4776 166.823C20.686 159.813 13.1475 149.716 7.86222 136.53C2.63258 123.289 0.017756 107.35 0.017756 88.7124C0.0733904 70.0748 2.71603 54.219 7.94567 41.1449C13.2309 28.0151 20.7694 18.0009 30.5611 11.1023C40.4084 4.20359 52.1751 0.754255 65.8612 0.754255C79.5472 0.754255 91.3139 4.20359 101.161 11.1023C111.009 18.0009 118.547 28.0151 123.777 41.1449C129.062 54.2746 131.705 70.1304 131.705 88.7124C131.705 107.406 129.062 123.373 123.777 136.614C118.547 149.799 111.009 159.869 101.161 166.823C91.3696 173.777 79.6029 177.255 65.8612 177.255ZM65.8612 151.134C76.543 151.134 84.9716 145.877 91.147 135.362C97.3781 124.791 100.494 109.241 100.494 88.7124C100.494 75.1375 99.0749 63.7325 96.2376 54.4972C93.4002 45.2618 89.3945 38.3075 84.2205 33.6342C79.0465 28.9053 72.9267 26.5408 65.8612 26.5408C55.235 26.5408 46.8342 31.8261 40.6587 42.3967C34.4833 52.9116 31.3678 68.3501 31.3121 88.7124C31.2565 102.343 32.6196 113.804 35.4013 123.094C38.2386 132.385 42.2443 139.395 47.4183 144.124C52.5923 148.798 58.7399 151.134 65.8612 151.134ZM135.931 174V151.635L195.266 93.4691C200.94 87.7388 205.669 82.6482 209.452 78.1974C213.235 73.7467 216.073 69.435 217.964 65.2624C219.856 61.0898 220.802 56.6391 220.802 51.9102C220.802 46.5136 219.578 41.8959 217.13 38.0572C214.682 34.1628 211.316 31.1585 207.032 29.0444C202.748 26.9303 197.88 25.8732 192.428 25.8732C186.809 25.8732 181.885 27.0415 177.657 29.3782C173.429 31.6592 170.147 34.9138 167.81 39.142C165.529 43.3703 164.388 48.4052 164.388 54.2468H134.93C134.93 43.3981 137.406 33.968 142.357 25.9567C147.309 17.9453 154.124 11.7421 162.803 7.34694C171.537 2.95182 181.552 0.754255 192.845 0.754255C204.306 0.754255 214.376 2.89618 223.055 7.18004C231.734 11.4639 238.466 17.3333 243.25 24.7884C248.09 32.2434 250.511 40.7554 250.511 50.3246C250.511 56.7225 249.287 63.0092 246.839 69.1847C244.391 75.3601 240.079 82.2031 233.904 89.7138C227.784 97.2244 219.188 106.321 208.117 117.002L178.659 146.962V148.13H253.098V174H135.931Z" fill="url(#paint0_linear_39_331)"/>
</g>
<defs>
<filter id="filter0_i_39_331" x="0.0177612" y="0.753906" width="253.08" height="179.501" filterUnits="userSpaceOnUse" color-interpolation-filters="sRGB">
<feFlood flood-opacity="0" result="BackgroundImageFix"/>
<feBlend mode="normal" in="SourceGraphic" in2="BackgroundImageFix" result="shape"/>
<feColorMatrix in="SourceAlpha" type="matrix" values="0 0 0 0 0 0 0 0 0 0 0 0 0 0 0 0 0 0 127 0" result="hardAlpha"/>
<feOffset dy="3"/>
<feGaussianBlur stdDeviation="10"/>
<feComposite in2="hardAlpha" operator="arithmetic" k2="-1" k3="1"/>
<feColorMatrix type="matrix" values="0 0 0 0 0 0 0 0 0 0 0 0 0 0 0 0 0 0 0.2 0"/>
<feBlend mode="normal" in2="shape" result="effect1_innerShadow_39_331"/>
</filter>
<linearGradient id="paint0_linear_39_331" x1="267.5" y1="218.5" x2="135.606" y2="-68.2288" gradientUnits="userSpaceOnUse">
<stop stop-color="#EFEFEF" stop-opacity="0.3"/>
<stop offset="1" stop-color="#030303" stop-opacity="0.2"/>
</linearGradient>
</defs>
</svg>
