<svg width="261" height="178" viewBox="0 0 261 178" fill="none" xmlns="http://www.w3.org/2000/svg">
<g opacity="0.7" filter="url(#filter0_i_73_967)">
<path d="M65.8612 177.255C52.1194 177.255 40.3249 173.777 30.4776 166.823C20.686 159.813 13.1475 149.716 7.86222 136.53C2.63258 123.289 0.017756 107.35 0.017756 88.7124C0.0733904 70.0748 2.71603 54.219 7.94567 41.1449C13.2309 28.0151 20.7694 18.0009 30.5611 11.1023C40.4084 4.20359 52.1751 0.754255 65.8612 0.754255C79.5472 0.754255 91.3139 4.20359 101.161 11.1023C111.009 18.0009 118.547 28.0151 123.777 41.1449C129.062 54.2746 131.705 70.1304 131.705 88.7124C131.705 107.406 129.062 123.373 123.777 136.614C118.547 149.799 111.009 159.869 101.161 166.823C91.3696 173.777 79.6029 177.255 65.8612 177.255ZM65.8612 151.134C76.543 151.134 84.9716 145.877 91.147 135.362C97.3781 124.791 100.494 109.241 100.494 88.7124C100.494 75.1375 99.0749 63.7325 96.2376 54.4972C93.4002 45.2618 89.3945 38.3075 84.2205 33.6342C79.0465 28.9053 72.9267 26.5408 65.8612 26.5408C55.235 26.5408 46.8342 31.8261 40.6587 42.3967C34.4833 52.9116 31.3678 68.3501 31.3121 88.7124C31.2565 102.343 32.6196 113.804 35.4013 123.094C38.2386 132.385 42.2443 139.395 47.4183 144.124C52.5923 148.798 58.7399 151.134 65.8612 151.134ZM197.268 176.337C185.251 176.337 174.57 174.278 165.223 170.161C155.932 166.044 148.588 160.314 143.192 152.97C137.795 145.626 134.93 137.142 134.596 127.517H165.974C166.252 132.135 167.782 136.169 170.564 139.618C173.346 143.012 177.045 145.654 181.663 147.546C186.281 149.437 191.455 150.383 197.185 150.383C203.305 150.383 208.729 149.326 213.458 147.212C218.187 145.042 221.887 142.038 224.557 138.199C227.228 134.36 228.535 129.937 228.479 124.93C228.535 119.756 227.2 115.194 224.474 111.244C221.748 107.294 217.797 104.207 212.623 101.981C207.505 99.7558 201.33 98.6431 194.097 98.6431H178.992V74.7759H194.097C200.05 74.7759 205.252 73.7467 209.703 71.6882C214.209 69.6297 217.742 66.7367 220.301 63.0092C222.86 59.2261 224.112 54.8588 224.056 49.9073C224.112 45.0671 223.027 40.8667 220.802 37.3061C218.632 33.6899 215.544 30.8803 211.539 28.8775C207.589 26.8746 202.943 25.8732 197.602 25.8732C192.373 25.8732 187.532 26.819 183.082 28.7106C178.631 30.6021 175.042 33.3004 172.316 36.8054C169.59 40.2547 168.144 44.3717 167.977 49.1562H138.185C138.407 39.5871 141.161 31.1863 146.446 23.9538C151.787 16.6657 158.908 10.991 167.81 6.92969C176.711 2.81273 186.698 0.754255 197.769 0.754255C209.174 0.754255 219.077 2.89618 227.478 7.18004C235.934 11.4083 242.471 17.1108 247.089 24.2876C251.707 31.4645 254.016 39.3924 254.016 48.0714C254.071 57.6961 251.234 65.7631 245.503 72.2724C239.829 78.7816 232.374 83.0376 223.138 85.0405V86.3757C235.155 88.0447 244.363 92.4955 250.761 99.728C257.215 106.905 260.414 115.834 260.358 126.516C260.358 136.085 257.632 144.653 252.18 152.219C246.783 159.73 239.328 165.627 229.815 169.911C220.357 174.195 209.508 176.337 197.268 176.337Z" fill="url(#paint0_linear_73_967)"/>
</g>
<defs>
<filter id="filter0_i_73_967" x="0.0177612" y="0.753906" width="260.424" height="179.501" filterUnits="userSpaceOnUse" color-interpolation-filters="sRGB">
<feFlood flood-opacity="0" result="BackgroundImageFix"/>
<feBlend mode="normal" in="SourceGraphic" in2="BackgroundImageFix" result="shape"/>
<feColorMatrix in="SourceAlpha" type="matrix" values="0 0 0 0 0 0 0 0 0 0 0 0 0 0 0 0 0 0 127 0" result="hardAlpha"/>
<feOffset dy="3"/>
<feGaussianBlur stdDeviation="10"/>
<feComposite in2="hardAlpha" operator="arithmetic" k2="-1" k3="1"/>
<feColorMatrix type="matrix" values="0 0 0 0 0 0 0 0 0 0 0 0 0 0 0 0 0 0 0.2 0"/>
<feBlend mode="normal" in2="shape" result="effect1_innerShadow_73_967"/>
</filter>
<linearGradient id="paint0_linear_73_967" x1="274.5" y1="218.5" x2="144.731" y2="-70.6622" gradientUnits="userSpaceOnUse">
<stop stop-color="#EFEFEF" stop-opacity="0.3"/>
<stop offset="1" stop-color="#030303" stop-opacity="0.2"/>
</linearGradient>
</defs>
</svg>
