<svg width="257" height="178" viewBox="0 0 257 178" fill="none" xmlns="http://www.w3.org/2000/svg">
<g opacity="0.7" filter="url(#filter0_i_73_976)">
<path d="M65.8612 177.255C52.1194 177.255 40.3249 173.777 30.4776 166.823C20.686 159.813 13.1475 149.716 7.86222 136.53C2.63258 123.289 0.017756 107.35 0.017756 88.7124C0.0733904 70.0748 2.71603 54.219 7.94567 41.1449C13.2309 28.0151 20.7694 18.0009 30.5611 11.1023C40.4084 4.20359 52.1751 0.754255 65.8612 0.754255C79.5472 0.754255 91.3139 4.20359 101.161 11.1023C111.009 18.0009 118.547 28.0151 123.777 41.1449C129.062 54.2746 131.705 70.1304 131.705 88.7124C131.705 107.406 129.062 123.373 123.777 136.614C118.547 149.799 111.009 159.869 101.161 166.823C91.3696 173.777 79.6029 177.255 65.8612 177.255ZM65.8612 151.134C76.543 151.134 84.9716 145.877 91.147 135.362C97.3781 124.791 100.494 109.241 100.494 88.7124C100.494 75.1375 99.0749 63.7325 96.2376 54.4972C93.4002 45.2618 89.3945 38.3075 84.2205 33.6342C79.0465 28.9053 72.9267 26.5408 65.8612 26.5408C55.235 26.5408 46.8342 31.8261 40.6587 42.3967C34.4833 52.9116 31.3678 68.3501 31.3121 88.7124C31.2565 102.343 32.6196 113.804 35.4013 123.094C38.2386 132.385 42.2443 139.395 47.4183 144.124C52.5923 148.798 58.7399 151.134 65.8612 151.134ZM195.349 176.337C184.222 176.337 174.264 174.25 165.473 170.078C156.683 165.85 149.701 160.064 144.527 152.72C139.409 145.376 136.682 136.975 136.349 127.517H166.391C166.948 134.527 169.98 140.258 175.487 144.708C180.995 149.104 187.616 151.301 195.349 151.301C201.413 151.301 206.81 149.91 211.539 147.129C216.268 144.347 219.995 140.48 222.721 135.529C225.447 130.577 226.782 124.93 226.727 118.588C226.782 112.134 225.419 106.404 222.638 101.397C219.856 96.3899 216.045 92.4677 211.205 89.6303C206.365 86.7373 200.801 85.2908 194.514 85.2908C189.396 85.2352 184.361 86.181 179.41 88.1282C174.458 90.0754 170.536 92.6346 167.643 95.8057L139.687 91.2159L148.616 3.0909H247.757V28.9609H174.236L169.312 74.2752H170.313C173.485 70.5477 177.963 67.46 183.749 65.0121C189.535 62.5085 195.878 61.2567 202.776 61.2567C213.124 61.2567 222.36 63.7047 230.482 68.6005C238.605 73.4407 245.003 80.1168 249.676 88.6289C254.349 97.141 256.686 106.877 256.686 117.837C256.686 129.131 254.071 139.201 248.842 148.047C243.668 156.837 236.463 163.763 227.228 168.826C218.048 173.833 207.422 176.337 195.349 176.337Z" fill="url(#paint0_linear_73_976)"/>
</g>
<defs>
<filter id="filter0_i_73_976" x="0.0177612" y="0.753906" width="256.668" height="179.501" filterUnits="userSpaceOnUse" color-interpolation-filters="sRGB">
<feFlood flood-opacity="0" result="BackgroundImageFix"/>
<feBlend mode="normal" in="SourceGraphic" in2="BackgroundImageFix" result="shape"/>
<feColorMatrix in="SourceAlpha" type="matrix" values="0 0 0 0 0 0 0 0 0 0 0 0 0 0 0 0 0 0 127 0" result="hardAlpha"/>
<feOffset dy="3"/>
<feGaussianBlur stdDeviation="10"/>
<feComposite in2="hardAlpha" operator="arithmetic" k2="-1" k3="1"/>
<feColorMatrix type="matrix" values="0 0 0 0 0 0 0 0 0 0 0 0 0 0 0 0 0 0 0.2 0"/>
<feBlend mode="normal" in2="shape" result="effect1_innerShadow_73_976"/>
</filter>
<linearGradient id="paint0_linear_73_976" x1="269.5" y1="218.5" x2="138.218" y2="-68.9383" gradientUnits="userSpaceOnUse">
<stop stop-color="#EFEFEF" stop-opacity="0.3"/>
<stop offset="1" stop-color="#030303" stop-opacity="0.2"/>
</linearGradient>
</defs>
</svg>
