<svg width="261" height="178" viewBox="0 0 261 178" fill="none" xmlns="http://www.w3.org/2000/svg">
<g opacity="0.7" filter="url(#filter0_i_73_980)">
<path d="M65.8612 177.255C52.1194 177.255 40.3249 173.777 30.4776 166.823C20.686 159.813 13.1475 149.716 7.86222 136.53C2.63258 123.289 0.017756 107.35 0.017756 88.7124C0.0733904 70.0748 2.71603 54.219 7.94567 41.1449C13.2309 28.0151 20.7694 18.0009 30.5611 11.1023C40.4084 4.20359 52.1751 0.754255 65.8612 0.754255C79.5472 0.754255 91.3139 4.20359 101.161 11.1023C111.009 18.0009 118.547 28.0151 123.777 41.1449C129.062 54.2746 131.705 70.1304 131.705 88.7124C131.705 107.406 129.062 123.373 123.777 136.614C118.547 149.799 111.009 159.869 101.161 166.823C91.3696 173.777 79.6029 177.255 65.8612 177.255ZM65.8612 151.134C76.543 151.134 84.9716 145.877 91.147 135.362C97.3781 124.791 100.494 109.241 100.494 88.7124C100.494 75.1375 99.0749 63.7325 96.2376 54.4972C93.4002 45.2618 89.3945 38.3075 84.2205 33.6342C79.0465 28.9053 72.9267 26.5408 65.8612 26.5408C55.235 26.5408 46.8342 31.8261 40.6587 42.3967C34.4833 52.9116 31.3678 68.3501 31.3121 88.7124C31.2565 102.343 32.6196 113.804 35.4013 123.094C38.2386 132.385 42.2443 139.395 47.4183 144.124C52.5923 148.798 58.7399 151.134 65.8612 151.134ZM198.52 176.337C190.342 176.281 182.358 174.862 174.57 172.081C166.781 169.243 159.771 164.653 153.54 158.311C147.309 151.913 142.357 143.429 138.685 132.858C135.013 122.232 133.205 109.075 133.261 93.3857C133.261 78.7538 134.819 65.7075 137.934 54.2468C141.05 42.7861 145.528 33.1057 151.37 25.2056C157.212 17.2499 164.249 11.1857 172.483 7.01313C180.773 2.84055 190.036 0.754255 200.273 0.754255C211.01 0.754255 220.524 2.86836 228.813 7.09658C237.158 11.3248 243.89 17.1108 249.008 24.4545C254.127 31.7427 257.298 39.9766 258.522 49.1562H228.062C226.504 42.5914 223.305 37.3617 218.465 33.4673C213.681 29.5173 207.616 27.5423 200.273 27.5423C188.422 27.5423 179.298 32.6884 172.9 42.9808C166.558 53.2732 163.359 67.4044 163.304 85.3743H164.472C167.198 80.4785 170.731 76.2781 175.07 72.7731C179.41 69.2681 184.306 66.5698 189.758 64.6783C195.266 62.7311 201.079 61.7575 207.199 61.7575C217.213 61.7575 226.198 64.1497 234.154 68.9343C242.165 73.7189 248.508 80.3115 253.181 88.7124C257.854 97.0575 260.163 106.627 260.108 117.42C260.163 128.658 257.604 138.756 252.43 147.713C247.256 156.614 240.051 163.624 230.816 168.743C221.581 173.861 210.815 176.392 198.52 176.337ZM198.353 151.301C204.417 151.301 209.842 149.827 214.626 146.878C219.411 143.93 223.194 139.952 225.976 134.945C228.757 129.937 230.121 124.318 230.065 118.087C230.121 111.968 228.785 106.432 226.059 101.48C223.389 96.529 219.689 92.6068 214.96 89.7138C210.231 86.8208 204.835 85.3743 198.771 85.3743C194.264 85.3743 190.064 86.2366 186.169 87.9613C182.275 89.686 178.881 92.0782 175.988 95.1381C173.095 98.1424 170.814 101.647 169.145 105.653C167.532 109.603 166.697 113.831 166.642 118.338C166.697 124.291 168.088 129.771 170.814 134.778C173.54 139.785 177.296 143.79 182.08 146.795C186.865 149.799 192.289 151.301 198.353 151.301Z" fill="url(#paint0_linear_73_980)"/>
</g>
<defs>
<filter id="filter0_i_73_980" x="0.0177612" y="0.753906" width="260.173" height="179.501" filterUnits="userSpaceOnUse" color-interpolation-filters="sRGB">
<feFlood flood-opacity="0" result="BackgroundImageFix"/>
<feBlend mode="normal" in="SourceGraphic" in2="BackgroundImageFix" result="shape"/>
<feColorMatrix in="SourceAlpha" type="matrix" values="0 0 0 0 0 0 0 0 0 0 0 0 0 0 0 0 0 0 127 0" result="hardAlpha"/>
<feOffset dy="3"/>
<feGaussianBlur stdDeviation="10"/>
<feComposite in2="hardAlpha" operator="arithmetic" k2="-1" k3="1"/>
<feColorMatrix type="matrix" values="0 0 0 0 0 0 0 0 0 0 0 0 0 0 0 0 0 0 0.2 0"/>
<feBlend mode="normal" in2="shape" result="effect1_innerShadow_73_980"/>
</filter>
<linearGradient id="paint0_linear_73_980" x1="273.5" y1="412.75" x2="-157.715" y2="29.7407" gradientUnits="userSpaceOnUse">
<stop stop-color="#EFEFEF" stop-opacity="0.3"/>
<stop offset="1" stop-color="#030303" stop-opacity="0.2"/>
</linearGradient>
</defs>
</svg>
