<svg width="50" height="50" viewBox="0 0 50 50" fill="none" xmlns="http://www.w3.org/2000/svg">
<path d="M20.8333 33.3337C20.8333 29.8753 20.8333 27.0837 27.0833 27.0837H35.4166C41.6666 27.0837 41.6666 25.0003 41.6666 20.8337V16.667C41.6666 12.5003 41.6666 10.417 35.4166 10.417H33.3333" stroke="#1F2D6C" stroke-width="3" stroke-linecap="round" stroke-linejoin="round"/>
<path d="M25.0001 4.16699H16.6667C15.3126 8.22949 15.3126 12.6045 16.6667 16.667H25.0001C26.3542 12.6045 26.3542 8.22949 25.0001 4.16699Z" stroke="#1F2D6C" stroke-width="3" stroke-linecap="round" stroke-linejoin="round"/>
<path d="M16.6666 4.16699H14.5833C10.4166 4.16699 8.33325 6.25033 8.33325 10.417C8.33325 14.5837 10.4166 16.667 14.5833 16.667H16.6666C14.5833 12.5003 14.5833 8.33366 16.6666 4.16699Z" stroke="#1F2D6C" stroke-width="3" stroke-linecap="round" stroke-linejoin="round"/>
<path d="M27.0833 4.16699H25C27.0833 8.33366 27.0833 12.5003 25 16.667H27.0833C31.25 16.667 33.3333 14.5837 33.3333 10.417C33.3333 6.25033 31.25 4.16699 27.0833 4.16699Z" stroke="#1F2D6C" stroke-width="3" stroke-linecap="round" stroke-linejoin="round"/>
<path d="M19.7917 45.833H21.8751C25.0001 45.833 25.0001 43.7497 25.0001 42.708V36.458C25.0001 35.4163 25.0001 33.333 21.8751 33.333H19.7917C16.6667 33.333 16.6667 35.4163 16.6667 36.458V42.708C16.6667 43.7497 16.6667 45.833 19.7917 45.833Z" stroke="#1F2D6C" stroke-width="3" stroke-linecap="round" stroke-linejoin="round"/>
</svg>
