<svg width="35" height="35" viewBox="0 0 35 35" fill="none" xmlns="http://www.w3.org/2000/svg">
<path d="M32.0395 26.4675C32.0395 26.9775 31.9229 27.5017 31.675 28.0117C31.427 28.5217 31.1062 29.0033 30.6833 29.4567C29.9687 30.2217 29.1812 30.7742 28.2916 31.1283C27.4166 31.4825 26.4687 31.6667 25.4479 31.6667C23.9604 31.6667 22.3708 31.3267 20.6937 30.6325C19.0166 29.9383 17.3395 29.0033 15.677 27.8275C14 26.6375 12.4104 25.32 10.8937 23.8608C9.39163 22.3875 8.03538 20.8433 6.82496 19.2283C5.62913 17.6133 4.66663 15.9983 3.96663 14.3975C3.26663 12.7825 2.91663 11.2383 2.91663 9.765C2.91663 8.80166 3.09163 7.88083 3.44163 7.03083C3.79163 6.16666 4.34579 5.37333 5.11871 4.665C6.05204 3.7725 7.07288 3.33333 8.15204 3.33333C8.56038 3.33333 8.96871 3.41833 9.33329 3.58833C9.71246 3.75833 10.0479 4.01333 10.3104 4.38166L13.6937 9.01416C13.9562 9.36833 14.1458 9.69416 14.277 10.0058C14.4083 10.3033 14.4812 10.6008 14.4812 10.87C14.4812 11.21 14.3791 11.55 14.175 11.8758C13.9854 12.2017 13.7083 12.5417 13.3583 12.8817L12.25 14.0008C12.0895 14.1567 12.0166 14.3408 12.0166 14.5675C12.0166 14.6808 12.0312 14.78 12.0604 14.8933C12.1041 15.0067 12.1479 15.0917 12.177 15.1767C12.4395 15.6442 12.8916 16.2533 13.5333 16.99C14.1895 17.7267 14.8895 18.4775 15.6479 19.2283C16.4354 19.9792 17.1937 20.6733 17.9666 21.3108C18.725 21.9342 19.352 22.3592 19.8479 22.6142C19.9208 22.6425 20.0083 22.685 20.1104 22.7275C20.227 22.77 20.3437 22.7842 20.475 22.7842C20.7229 22.7842 20.9125 22.6992 21.0729 22.5433L22.1812 21.4808C22.5458 21.1267 22.8958 20.8575 23.2312 20.6875C23.5666 20.4892 23.902 20.39 24.2666 20.39C24.5437 20.39 24.8354 20.4467 25.1562 20.5742C25.477 20.7017 25.8125 20.8858 26.177 21.1267L31.0041 24.4558C31.3833 24.7108 31.6458 25.0083 31.8062 25.3625C31.952 25.7167 32.0395 26.0708 32.0395 26.4675Z" stroke="#101010" stroke-width="3" stroke-miterlimit="10"/>
</svg>
