<svg width="17" height="16" viewBox="0 0 17 16" fill="none" xmlns="http://www.w3.org/2000/svg">
<path d="M15.1466 12.2197C15.1466 12.4597 15.0933 12.7063 14.9799 12.9463C14.8666 13.1863 14.7199 13.413 14.5266 13.6263C14.1999 13.9863 13.8399 14.2463 13.4333 14.413C13.0333 14.5797 12.5999 14.6663 12.1333 14.6663C11.4533 14.6663 10.7266 14.5063 9.95992 14.1797C9.19325 13.853 8.42659 13.413 7.66659 12.8597C6.89992 12.2997 6.17325 11.6797 5.47992 10.993C4.79325 10.2997 4.17325 9.57301 3.61992 8.81301C3.07325 8.05301 2.63325 7.29301 2.31325 6.53967C1.99325 5.77967 1.83325 5.05301 1.83325 4.35967C1.83325 3.90634 1.91325 3.47301 2.07325 3.07301C2.23325 2.66634 2.48659 2.29301 2.83992 1.95967C3.26659 1.53967 3.73325 1.33301 4.22659 1.33301C4.41325 1.33301 4.59992 1.37301 4.76659 1.45301C4.93992 1.53301 5.09325 1.65301 5.21325 1.82634L6.75992 4.00634C6.87992 4.17301 6.96659 4.32634 7.02659 4.47301C7.08659 4.61301 7.11992 4.75301 7.11992 4.87967C7.11992 5.03967 7.07325 5.19967 6.97992 5.35301C6.89325 5.50634 6.76659 5.66634 6.60659 5.82634L6.09992 6.35301C6.02659 6.42634 5.99325 6.51301 5.99325 6.61967C5.99325 6.67301 5.99992 6.71967 6.01325 6.77301C6.03325 6.82634 6.05325 6.86634 6.06659 6.90634C6.18659 7.12634 6.39325 7.41301 6.68659 7.75967C6.98659 8.10634 7.30659 8.45967 7.65325 8.81301C8.01325 9.16634 8.35992 9.49301 8.71325 9.79301C9.05992 10.0863 9.34659 10.2863 9.57325 10.4063C9.60659 10.4197 9.64659 10.4397 9.69325 10.4597C9.74659 10.4797 9.79992 10.4863 9.85992 10.4863C9.97325 10.4863 10.0599 10.4463 10.1333 10.373L10.6399 9.87301C10.8066 9.70634 10.9666 9.57967 11.1199 9.49967C11.2733 9.40634 11.4266 9.35967 11.5933 9.35967C11.7199 9.35967 11.8533 9.38634 11.9999 9.44634C12.1466 9.50634 12.2999 9.59301 12.4666 9.70634L14.6733 11.273C14.8466 11.393 14.9666 11.533 15.0399 11.6997C15.1066 11.8663 15.1466 12.033 15.1466 12.2197Z" stroke="white" stroke-width="1.5" stroke-miterlimit="10"/>
<path d="M12.8333 5.99935C12.8333 5.59935 12.52 4.98602 12.0533 4.48602C11.6267 4.02602 11.06 3.66602 10.5 3.66602" stroke="white" stroke-width="1.5" stroke-linecap="round" stroke-linejoin="round"/>
<path d="M15.1667 5.99967C15.1667 3.41967 13.08 1.33301 10.5 1.33301" stroke="white" stroke-width="1.5" stroke-linecap="round" stroke-linejoin="round"/>
</svg>
