<svg width="50" height="50" viewBox="0 0 50 50" fill="none" xmlns="http://www.w3.org/2000/svg">
<path d="M45.7708 38.1875C45.7708 38.9375 45.6041 39.7084 45.25 40.4584C44.8958 41.2084 44.4375 41.9167 43.8333 42.5834C42.8125 43.7084 41.6875 44.5209 40.4166 45.0417C39.1666 45.5625 37.8125 45.8334 36.3541 45.8334C34.2291 45.8334 31.9583 45.3334 29.5625 44.3125C27.1666 43.2917 24.7708 41.9167 22.3958 40.1875C20 38.4375 17.7291 36.5 15.5625 34.3542C13.4166 32.1875 11.4791 29.9167 9.74996 27.5417C8.04163 25.1667 6.66663 22.7917 5.66663 20.4375C4.66663 18.0625 4.16663 15.7917 4.16663 13.625C4.16663 12.2084 4.41663 10.8542 4.91663 9.60419C5.41663 8.33335 6.20829 7.16669 7.31246 6.12502C8.64579 4.81252 10.1041 4.16669 11.6458 4.16669C12.2291 4.16669 12.8125 4.29169 13.3333 4.54169C13.875 4.79169 14.3541 5.16669 14.7291 5.70835L19.5625 12.5209C19.9375 13.0417 20.2083 13.5209 20.3958 13.9792C20.5833 14.4167 20.6875 14.8542 20.6875 15.25C20.6875 15.75 20.5416 16.25 20.25 16.7292C19.9791 17.2084 19.5833 17.7084 19.0833 18.2084L17.5 19.8542C17.2708 20.0834 17.1666 20.3542 17.1666 20.6875C17.1666 20.8542 17.1875 21 17.2291 21.1667C17.2916 21.3334 17.3541 21.4584 17.3958 21.5834C17.7708 22.2709 18.4166 23.1667 19.3333 24.25C20.2708 25.3334 21.2708 26.4375 22.3541 27.5417C23.4791 28.6459 24.5625 29.6667 25.6666 30.6042C26.75 31.5209 27.6458 32.1459 28.3541 32.5209C28.4583 32.5625 28.5833 32.625 28.7291 32.6875C28.8958 32.75 29.0625 32.7709 29.25 32.7709C29.6041 32.7709 29.875 32.6459 30.1041 32.4167L31.6875 30.8542C32.2083 30.3334 32.7083 29.9375 33.1875 29.6875C33.6666 29.3959 34.1458 29.25 34.6666 29.25C35.0625 29.25 35.4791 29.3334 35.9375 29.5209C36.3958 29.7084 36.875 29.9792 37.3958 30.3334L44.2916 35.2292C44.8333 35.6042 45.2083 36.0417 45.4375 36.5625C45.6458 37.0834 45.7708 37.6042 45.7708 38.1875Z" stroke="#25D366" stroke-width="3" stroke-miterlimit="10"/>
<path d="M38.5417 18.75C38.5417 17.5 37.5625 15.5834 36.1042 14.0209C34.7708 12.5834 33 11.4584 31.25 11.4584" stroke="#25D366" stroke-width="3" stroke-linecap="round" stroke-linejoin="round"/>
<path d="M45.8333 18.75C45.8333 10.6875 39.3125 4.16669 31.25 4.16669" stroke="#25D366" stroke-width="3" stroke-linecap="round" stroke-linejoin="round"/>
</svg>
