<svg width="16" height="16" viewBox="0 0 16 16" fill="none" xmlns="http://www.w3.org/2000/svg">
<path d="M14.6466 12.22C14.6466 12.46 14.5933 12.7067 14.4799 12.9467C14.3666 13.1867 14.2199 13.4133 14.0266 13.6267C13.6999 13.9867 13.3399 14.2467 12.9333 14.4133C12.5333 14.58 12.0999 14.6667 11.6333 14.6667C10.9533 14.6667 10.2266 14.5067 9.45992 14.18C8.69325 13.8533 7.92659 13.4133 7.16659 12.86C6.39992 12.3 5.67325 11.68 4.97992 10.9933C4.29325 10.3 3.67325 9.57334 3.11992 8.81334C2.57325 8.05334 2.13325 7.29334 1.81325 6.54001C1.49325 5.78001 1.33325 5.05334 1.33325 4.36001C1.33325 3.90668 1.41325 3.47334 1.57325 3.07334C1.73325 2.66668 1.98659 2.29334 2.33992 1.96001C2.76659 1.54001 3.23325 1.33334 3.72659 1.33334C3.91325 1.33334 4.09992 1.37334 4.26659 1.45334C4.43992 1.53334 4.59325 1.65334 4.71325 1.82668L6.25992 4.00668C6.37992 4.17334 6.46659 4.32668 6.52659 4.47334C6.58659 4.61334 6.61992 4.75334 6.61992 4.88001C6.61992 5.04001 6.57325 5.20001 6.47992 5.35334C6.39325 5.50668 6.26659 5.66668 6.10659 5.82668L5.59992 6.35334C5.52659 6.42668 5.49325 6.51334 5.49325 6.62001C5.49325 6.67334 5.49992 6.72001 5.51325 6.77334C5.53325 6.82668 5.55325 6.86668 5.56659 6.90668C5.68659 7.12668 5.89325 7.41334 6.18659 7.76001C6.48659 8.10668 6.80659 8.46001 7.15325 8.81334C7.51325 9.16668 7.85992 9.49334 8.21325 9.79334C8.55992 10.0867 8.84659 10.2867 9.07325 10.4067C9.10659 10.42 9.14659 10.44 9.19325 10.46C9.24659 10.48 9.29992 10.4867 9.35992 10.4867C9.47325 10.4867 9.55992 10.4467 9.63325 10.3733L10.1399 9.87334C10.3066 9.70668 10.4666 9.58001 10.6199 9.50001C10.7733 9.40668 10.9266 9.36001 11.0933 9.36001C11.2199 9.36001 11.3533 9.38668 11.4999 9.44668C11.6466 9.50668 11.7999 9.59334 11.9666 9.70668L14.1733 11.2733C14.3466 11.3933 14.4666 11.5333 14.5399 11.7C14.6066 11.8667 14.6466 12.0333 14.6466 12.22Z" stroke="#075E54" stroke-width="1.5" stroke-miterlimit="10"/>
<path d="M12.3333 6.00002C12.3333 5.60002 12.02 4.98669 11.5533 4.48669C11.1267 4.02669 10.56 3.66669 10 3.66669" stroke="#075E54" stroke-width="1.5" stroke-linecap="round" stroke-linejoin="round"/>
<path d="M14.6667 6.00001C14.6667 3.42001 12.58 1.33334 10 1.33334" stroke="#075E54" stroke-width="1.5" stroke-linecap="round" stroke-linejoin="round"/>
</svg>
