<svg width="50" height="50" viewBox="0 0 50 50" fill="none" xmlns="http://www.w3.org/2000/svg">
<g clip-path="url(#clip0_108_2235)">
<path d="M41.2948 11.6404C41.2948 9.98077 39.9497 8.64062 38.2962 8.64062C36.6426 8.64062 35.2964 9.98077 35.2964 11.6404C35.2964 13.294 36.6426 14.634 38.2962 14.634C39.9497 14.634 41.2948 13.294 41.2948 11.6404Z" fill="url(#paint0_linear_108_2235)"/>
<path d="M45.2904 35.0571C45.1793 37.4918 44.7721 38.8145 44.4341 39.6931C43.9799 40.858 43.4382 41.691 42.5596 42.5645C41.6909 43.4382 40.858 43.9787 39.6931 44.4278C38.8145 44.7709 37.4868 45.1793 35.0522 45.2954C32.4201 45.4114 31.6403 45.4361 24.9657 45.4361C18.2974 45.4361 17.5112 45.4114 14.8792 45.2954C12.4447 45.1793 11.123 44.7709 10.2444 44.4278C9.07338 43.9787 8.24666 43.4382 7.37301 42.5645C6.49316 41.691 5.95147 40.858 5.50354 39.6931C5.16537 38.8145 4.75205 37.4918 4.6471 35.0571C4.51883 32.425 4.49533 31.6328 4.49533 24.9719C4.49533 18.2973 4.51883 17.5113 4.6471 14.8792C4.75205 12.4446 5.16537 11.1231 5.50354 10.237C5.95147 9.07339 6.49316 8.24536 7.37301 7.37171C8.24666 6.49936 9.07338 5.95758 10.2444 5.50354C11.123 5.15927 12.4447 4.75696 14.8792 4.641C17.5112 4.52494 18.2974 4.49532 24.9657 4.49532C31.6403 4.49532 32.4201 4.52494 35.0522 4.641C37.4868 4.75696 38.8145 5.15927 39.6931 5.50354C40.858 5.95758 41.6909 6.49936 42.5596 7.37171C43.4382 8.24536 43.9799 9.07339 44.4341 10.237C44.7721 11.1231 45.1793 12.4446 45.2904 14.8792C45.4125 17.5113 45.4421 18.2973 45.4421 24.9719C45.4421 31.6328 45.4125 32.425 45.2904 35.0571ZM49.7858 14.6744C49.6637 12.0139 49.244 10.1963 48.6209 8.61314C47.9867 6.9707 47.1364 5.57878 45.7445 4.18686C44.3588 2.80115 42.9669 1.95091 41.3244 1.30927C39.7351 0.692261 37.9236 0.267742 35.2619 0.15178C32.6002 0.023416 31.7501 0 24.9657 0C18.1875 0 17.3312 0.023416 14.6695 0.15178C12.014 0.267742 10.2037 0.692261 8.60695 1.30927C6.9707 1.95091 5.57878 2.80115 4.19306 4.18686C2.80114 5.57878 1.95091 6.9707 1.31048 8.61314C0.693461 10.1963 0.273941 12.0139 0.145578 14.6744C0.0296153 17.3361 0 18.1875 0 24.9719C0 31.7501 0.0296153 32.6002 0.145578 35.2619C0.273941 37.9174 0.693461 39.7338 1.31048 41.3245C1.95091 42.9607 2.80114 44.3588 4.19306 45.7445C5.57878 47.1303 6.9707 47.9866 8.60695 48.6271C10.2037 49.244 12.014 49.6636 14.6695 49.7858C17.3312 49.908 18.1875 49.9376 24.9657 49.9376C31.7501 49.9376 32.6002 49.908 35.2619 49.7858C37.9236 49.6636 39.7351 49.244 41.3244 48.6271C42.9669 47.9866 44.3588 47.1303 45.7445 45.7445C47.1364 44.3588 47.9867 42.9607 48.6209 41.3245C49.244 39.7338 49.6637 37.9174 49.7858 35.2619C49.908 32.6002 49.9375 31.7501 49.9375 24.9719C49.9375 18.1875 49.908 17.3361 49.7858 14.6744Z" fill="url(#paint1_linear_108_2235)"/>
<path d="M24.9657 33.2898C20.3716 33.2898 16.6438 29.5681 16.6438 24.974C16.6438 20.3725 20.3716 16.646 24.9657 16.646C29.5611 16.646 33.2938 20.3725 33.2938 24.974C33.2938 29.5681 29.5611 33.2898 24.9657 33.2898ZM24.9657 12.1445C17.8839 12.1445 12.1484 17.8923 12.1484 24.974C12.1484 32.0497 17.8839 37.7913 24.9657 37.7913C32.0474 37.7913 37.7891 32.0497 37.7891 24.974C37.7891 17.8923 32.0474 12.1445 24.9657 12.1445Z" fill="url(#paint2_linear_108_2235)"/>
</g>
<defs>
<linearGradient id="paint0_linear_108_2235" x1="0.450341" y1="49.4204" x2="45.7782" y2="4.09265" gradientUnits="userSpaceOnUse">
<stop stop-color="#FFD521"/>
<stop offset="0.05" stop-color="#FFD521"/>
<stop offset="0.501119" stop-color="#F50000"/>
<stop offset="0.95" stop-color="#B900B4"/>
<stop offset="0.950079" stop-color="#B900B4"/>
<stop offset="1" stop-color="#B900B4"/>
</linearGradient>
<linearGradient id="paint1_linear_108_2235" x1="0.45043" y1="49.4835" x2="45.8155" y2="4.11839" gradientUnits="userSpaceOnUse">
<stop stop-color="#FFD521"/>
<stop offset="0.05" stop-color="#FFD521"/>
<stop offset="0.501119" stop-color="#F50000"/>
<stop offset="0.95" stop-color="#B900B4"/>
<stop offset="0.950079" stop-color="#B900B4"/>
<stop offset="1" stop-color="#B900B4"/>
</linearGradient>
<linearGradient id="paint2_linear_108_2235" x1="0.462169" y1="49.4869" x2="45.8163" y2="4.13271" gradientUnits="userSpaceOnUse">
<stop stop-color="#FFD521"/>
<stop offset="0.05" stop-color="#FFD521"/>
<stop offset="0.501119" stop-color="#F50000"/>
<stop offset="0.95" stop-color="#B900B4"/>
<stop offset="0.950079" stop-color="#B900B4"/>
<stop offset="1" stop-color="#B900B4"/>
</linearGradient>
<clipPath id="clip0_108_2235">
<rect width="50" height="50" fill="white"/>
</clipPath>
</defs>
</svg>
