<svg width="28" height="28" viewBox="0 0 28 28" fill="none" xmlns="http://www.w3.org/2000/svg">
<path d="M25.6317 21.3857C25.6317 21.8057 25.5384 22.2373 25.34 22.6573C25.1417 23.0773 24.885 23.474 24.5467 23.8473C23.975 24.4773 23.345 24.9323 22.6334 25.224C21.9334 25.5157 21.175 25.6673 20.3584 25.6673C19.1684 25.6673 17.8967 25.3873 16.555 24.8157C15.2134 24.244 13.8717 23.474 12.5417 22.5057C11.2 21.5257 9.92837 20.4407 8.71504 19.239C7.51337 18.0257 6.42837 16.754 5.46004 15.424C4.50337 14.094 3.73337 12.764 3.17337 11.4457C2.61337 10.1157 2.33337 8.84398 2.33337 7.63065C2.33337 6.83732 2.47337 6.07898 2.75337 5.37898C3.03337 4.66732 3.47671 4.01398 4.09504 3.43065C4.84171 2.69565 5.65837 2.33398 6.52171 2.33398C6.84837 2.33398 7.17504 2.40398 7.46671 2.54398C7.77004 2.68398 8.03837 2.89398 8.24837 3.19732L10.955 7.01232C11.165 7.30398 11.3167 7.57232 11.4217 7.82898C11.5267 8.07398 11.585 8.31898 11.585 8.54065C11.585 8.82065 11.5034 9.10065 11.34 9.36898C11.1884 9.63732 10.9667 9.91732 10.6867 10.1973L9.80004 11.119C9.67171 11.2473 9.61337 11.399 9.61337 11.5857C9.61337 11.679 9.62504 11.7607 9.64837 11.854C9.68337 11.9473 9.71837 12.0173 9.74171 12.0873C9.95171 12.4723 10.3134 12.974 10.8267 13.5807C11.3517 14.1873 11.9117 14.8057 12.5184 15.424C13.1484 16.0423 13.755 16.614 14.3734 17.139C14.98 17.6523 15.4817 18.0023 15.8784 18.2123C15.9367 18.2357 16.0067 18.2707 16.0884 18.3057C16.1817 18.3407 16.275 18.3523 16.38 18.3523C16.5784 18.3523 16.73 18.2823 16.8584 18.154L17.745 17.279C18.0367 16.9873 18.3167 16.7657 18.585 16.6257C18.8534 16.4623 19.1217 16.3807 19.4134 16.3807C19.635 16.3807 19.8684 16.4273 20.125 16.5323C20.3817 16.6373 20.65 16.789 20.9417 16.9873L24.8034 19.729C25.1067 19.939 25.3167 20.184 25.445 20.4756C25.5617 20.7673 25.6317 21.059 25.6317 21.3857Z" stroke="white" stroke-width="1.5" stroke-miterlimit="10"/>
</svg>
