<svg width="50" height="50" viewBox="0 0 50 50" fill="none" xmlns="http://www.w3.org/2000/svg">
<path d="M25.0001 45.8332C36.506 45.8332 45.8334 36.5058 45.8334 24.9998C45.8334 13.4939 36.506 4.1665 25.0001 4.1665C13.4941 4.1665 4.16675 13.4939 4.16675 24.9998C4.16675 36.5058 13.4941 45.8332 25.0001 45.8332Z" stroke="#1F2D6C" stroke-width="3" stroke-linecap="round" stroke-linejoin="round"/>
<path d="M16.6667 6.25H18.75C14.6875 18.4167 14.6875 31.5833 18.75 43.75H16.6667" stroke="#1F2D6C" stroke-width="3" stroke-linecap="round" stroke-linejoin="round"/>
<path d="M31.25 6.25C35.3125 18.4167 35.3125 31.5833 31.25 43.75" stroke="#1F2D6C" stroke-width="3" stroke-linecap="round" stroke-linejoin="round"/>
<path d="M6.25 33.3333V31.25C18.4167 35.3125 31.5833 35.3125 43.75 31.25V33.3333" stroke="#1F2D6C" stroke-width="3" stroke-linecap="round" stroke-linejoin="round"/>
<path d="M6.25 18.75C18.4167 14.6875 31.5833 14.6875 43.75 18.75" stroke="#1F2D6C" stroke-width="3" stroke-linecap="round" stroke-linejoin="round"/>
</svg>
