<svg width="50" height="50" viewBox="0 0 50 50" fill="none" xmlns="http://www.w3.org/2000/svg">
<path d="M14.6042 37.5L6.25 29.1458C3.45833 26.3542 3.45833 23.5833 6.25 20.7917L20.1667 6.875L35.4792 22.1876C36.25 22.9584 36.25 24.2083 35.4792 24.9792L22.9375 37.5209C20.1875 40.2709 17.3958 40.2709 14.6042 37.5Z" stroke="#1F2D6C" stroke-width="3" stroke-miterlimit="10" stroke-linecap="round" stroke-linejoin="round"/>
<path d="M17.3958 4.0625L20.1874 6.8541" stroke="#1F2D6C" stroke-width="3" stroke-miterlimit="10" stroke-linecap="round" stroke-linejoin="round"/>
<path d="M4.3125 24.8334L35.8125 23.4585" stroke="#1F2D6C" stroke-width="3" stroke-miterlimit="10" stroke-linecap="round" stroke-linejoin="round"/>
<path d="M6.25 45.8335H33.3333" stroke="#1F2D6C" stroke-width="3" stroke-miterlimit="10" stroke-linecap="round" stroke-linejoin="round"/>
<path d="M39.2709 31.25C39.2709 31.25 35.4167 35.4375 35.4167 38C35.4167 40.125 37.1459 41.8541 39.2709 41.8541C41.3959 41.8541 43.1251 40.125 43.1251 38C43.1251 35.4375 39.2709 31.25 39.2709 31.25Z" stroke="#1F2D6C" stroke-width="3" stroke-linecap="round" stroke-linejoin="round"/>
</svg>
