<svg width="50" height="50" viewBox="0 0 50 50" fill="none" xmlns="http://www.w3.org/2000/svg">
<path d="M24.9999 16.4375L22.7707 20.3125C22.2707 21.1667 22.6874 21.875 23.6665 21.875H26.3124C27.3124 21.875 27.7082 22.5833 27.2082 23.4375L24.9999 27.3125" stroke="#1F2D6C" stroke-width="3" stroke-linecap="round" stroke-linejoin="round"/>
<path d="M17.2917 37.5834V35.1667C12.5 32.2709 8.5625 26.625 8.5625 20.625C8.5625 10.3125 18.0417 2.22921 28.75 4.56254C33.4583 5.60421 37.5833 8.72921 39.7292 13.0417C44.0833 21.7917 39.5 31.0834 32.7708 35.1459V37.5625C32.7708 38.1667 33 39.5625 30.7708 39.5625H19.2917C17 39.5834 17.2917 38.6875 17.2917 37.5834Z" stroke="#1F2D6C" stroke-width="3" stroke-linecap="round" stroke-linejoin="round"/>
<path d="M17.7083 45.8335C22.4791 44.4793 27.5208 44.4793 32.2916 45.8335" stroke="#1F2D6C" stroke-width="3" stroke-linecap="round" stroke-linejoin="round"/>
</svg>
