<svg width="32" height="32" viewBox="0 0 32 32" fill="none" xmlns="http://www.w3.org/2000/svg">
<path d="M11.9999 25.3333C11.9999 26.3333 11.7199 27.28 11.2266 28.08C10.3066 29.6267 8.61325 30.6667 6.66659 30.6667C4.71992 30.6667 3.02659 29.6267 2.10659 28.08C1.61325 27.28 1.33325 26.3333 1.33325 25.3333C1.33325 22.3867 3.71992 20 6.66659 20C9.61325 20 11.9999 22.3867 11.9999 25.3333Z" stroke="black" stroke-width="1.5" stroke-miterlimit="10" stroke-linecap="round" stroke-linejoin="round"/>
<path d="M4.58838 25.3325L5.90838 26.6525L8.74838 24.0259" stroke="black" stroke-width="1.5" stroke-linecap="round" stroke-linejoin="round"/>
<path d="M23.6685 9.3998C23.3485 9.34646 23.0151 9.33314 22.6685 9.33314H9.33513C8.9618 9.33314 8.60179 9.35981 8.25513 9.41314C8.44179 9.03981 8.70846 8.69318 9.02846 8.37318L13.3618 4.0265C15.1885 2.21317 18.1485 2.21317 19.9751 4.0265L22.3085 6.38645C23.1618 7.22645 23.6151 8.29313 23.6685 9.3998Z" stroke="black" stroke-width="1.5" stroke-linecap="round" stroke-linejoin="round"/>
<path d="M29.3334 16.0002V22.6668C29.3334 26.6668 26.6667 29.3335 22.6667 29.3335H10.1734C10.5867 28.9868 10.9467 28.5602 11.2267 28.0802C11.7201 27.2802 12.0001 26.3335 12.0001 25.3335C12.0001 22.3868 9.61341 20.0002 6.66675 20.0002C5.06675 20.0002 3.64008 20.7068 2.66675 21.8135V16.0002C2.66675 12.3735 4.85341 9.84016 8.25341 9.41349C8.60008 9.36016 8.96008 9.3335 9.33341 9.3335H22.6667C23.0134 9.3335 23.3467 9.34681 23.6667 9.40015C27.1067 9.80015 29.3334 12.3468 29.3334 16.0002Z" stroke="black" stroke-width="1.5" stroke-linecap="round" stroke-linejoin="round"/>
<path d="M29.3334 16.6665H25.3334C23.8667 16.6665 22.6667 17.8665 22.6667 19.3332C22.6667 20.7998 23.8667 21.9998 25.3334 21.9998H29.3334" stroke="black" stroke-width="1.5" stroke-linecap="round" stroke-linejoin="round"/>
</svg>
