<svg width="105" height="105" viewBox="0 0 105 105" fill="none" xmlns="http://www.w3.org/2000/svg">
<path d="M39.375 83.125C39.375 86.4062 38.4562 89.5125 36.8375 92.1375C33.8187 97.2125 28.2625 100.625 21.875 100.625C15.4875 100.625 9.93126 97.2125 6.91251 92.1375C5.29376 89.5125 4.375 86.4062 4.375 83.125C4.375 73.4562 12.2062 65.625 21.875 65.625C31.5438 65.625 39.375 73.4562 39.375 83.125Z" stroke="white" stroke-width="3" stroke-miterlimit="10" stroke-linecap="round" stroke-linejoin="round"/>
<path d="M15.0562 83.1234L19.3874 87.4546L28.7062 78.8359" stroke="white" stroke-width="3" stroke-linecap="round" stroke-linejoin="round"/>
<path d="M77.6624 30.8436C76.6124 30.6686 75.5187 30.6249 74.3812 30.6249H30.6312C29.4062 30.6249 28.2249 30.7124 27.0874 30.8874C27.6999 29.6624 28.5749 28.525 29.6249 27.475L43.8437 13.2125C49.8374 7.2625 59.5499 7.2625 65.5437 13.2125L73.1999 20.9561C75.9999 23.7123 77.4874 27.2124 77.6624 30.8436Z" stroke="white" stroke-width="3" stroke-linecap="round" stroke-linejoin="round"/>
<path d="M96.25 52.5V74.375C96.25 87.5 87.5 96.25 74.375 96.25H33.3813C34.7375 95.1125 35.9187 93.7125 36.8375 92.1375C38.4562 89.5125 39.375 86.4062 39.375 83.125C39.375 73.4562 31.5438 65.625 21.875 65.625C16.625 65.625 11.9438 67.9437 8.75 71.5749V52.5C8.75 40.6 15.925 32.2875 27.0812 30.8875C28.2187 30.7125 29.4 30.625 30.625 30.625H74.375C75.5125 30.625 76.6063 30.6687 77.6562 30.8437C88.9437 32.1562 96.25 40.5125 96.25 52.5Z" stroke="white" stroke-width="3" stroke-linecap="round" stroke-linejoin="round"/>
<path d="M96.25 54.6875H83.125C78.3125 54.6875 74.375 58.625 74.375 63.4375C74.375 68.25 78.3125 72.1875 83.125 72.1875H96.25" stroke="white" stroke-width="3" stroke-linecap="round" stroke-linejoin="round"/>
</svg>
