<svg width="32" height="32" viewBox="0 0 32 32" fill="none" xmlns="http://www.w3.org/2000/svg">
<rect width="32" height="32" rx="16" fill="#48C95F"/>
<path d="M22.5122 9.47917C20.9129 7.88542 18.7805 7 16.5296 7C11.8502 7 8.05923 10.7778 8.05923 15.441C8.05923 16.9167 8.47387 18.3924 9.18467 19.6319L8 24L12.5017 22.8194C13.7456 23.4688 15.108 23.8229 16.5296 23.8229C21.2091 23.8229 25 20.0451 25 15.3819C24.9408 13.1979 24.1115 11.0729 22.5122 9.47917ZM20.6167 18.4514C20.439 18.9236 19.6098 19.3958 19.1951 19.4549C18.8397 19.5139 18.3659 19.5139 17.892 19.3958C17.5958 19.2778 17.1812 19.1597 16.7073 18.9236C14.5749 18.0382 13.2125 15.9132 13.0941 15.7361C12.9756 15.6181 12.2056 14.6146 12.2056 13.5521C12.2056 12.4896 12.7387 12.0174 12.9164 11.7812C13.0941 11.5451 13.331 11.5451 13.5087 11.5451C13.6272 11.5451 13.8049 11.5451 13.9233 11.5451C14.0418 11.5451 14.2195 11.4861 14.3972 11.8993C14.5749 12.3125 14.9895 13.375 15.0488 13.434C15.108 13.5521 15.108 13.6701 15.0488 13.7882C14.9895 13.9062 14.9303 14.0243 14.8118 14.1424C14.6934 14.2604 14.5749 14.4375 14.5157 14.4965C14.3972 14.6146 14.2787 14.7326 14.3972 14.9097C14.5157 15.1458 14.9303 15.7951 15.5819 16.3854C16.4111 17.0937 17.0627 17.3299 17.2997 17.4479C17.5366 17.566 17.655 17.5069 17.7735 17.3889C17.892 17.2708 18.3066 16.7986 18.4251 16.5625C18.5436 16.3264 18.7213 16.3854 18.899 16.4444C19.0767 16.5035 20.1429 17.0347 20.3206 17.1528C20.5575 17.2708 20.676 17.3299 20.7352 17.3889C20.7944 17.566 20.7944 17.9792 20.6167 18.4514Z" fill="white"/>
</svg>
