<svg width="50" height="50" viewBox="0 0 50 50" fill="none" xmlns="http://www.w3.org/2000/svg">
<path d="M4.1665 31.25H38.5415C42.5623 31.25 45.8332 34.5208 45.8332 38.5417C45.8332 42.5625 42.5623 45.8333 38.5415 45.8333C34.5207 45.8333 31.2498 42.5625 31.2498 38.5417V37.5" stroke="#1F2D6C" stroke-width="3" stroke-miterlimit="10" stroke-linecap="round" stroke-linejoin="round"/>
<path d="M4.1665 24.9998H38.5415C42.5415 24.9998 45.8332 21.729 45.8332 17.7082C45.8332 13.7082 42.5415 10.4165 38.5415 10.4165C34.5415 10.4165 31.2498 13.6873 31.2498 17.7082V18.7498" stroke="#1F2D6C" stroke-width="3" stroke-miterlimit="10" stroke-linecap="round" stroke-linejoin="round"/>
<path d="M4.1665 18.7498H19.3957C22.4998 18.7498 24.9998 16.229 24.9998 13.1457C24.9998 10.0415 22.479 7.5415 19.3957 7.5415C16.2915 7.5415 13.7915 10.0623 13.7915 13.1457V13.9373" stroke="#1F2D6C" stroke-width="3" stroke-miterlimit="10" stroke-linecap="round" stroke-linejoin="round"/>
</svg>
